<?xml version="1.0" standalone="no"?>
<!DOCTYPE svg PUBLIC "-//W3C//DTD SVG 20010904//EN"
 "http://www.w3.org/TR/2001/REC-SVG-20010904/DTD/svg10.dtd">
<svg version="1.0" xmlns="http://www.w3.org/2000/svg"
 width="500.000000pt" height="500.000000pt" viewBox="0 0 500.000000 500.000000"
 preserveAspectRatio="xMidYMid meet">

<g transform="translate(0.000000,500.000000) scale(0.100000,-0.100000)"
fill="#000000" stroke="none">
<path d="M0 2500 l0 -2500 2500 0 2500 0 0 2500 0 2500 -2500 0 -2500 0 0
-2500z m3760 376 c49 -26 88 -64 113 -111 21 -38 22 -53 22 -280 0 -227 -1
-242 -22 -280 -25 -47 -64 -85 -113 -111 -34 -18 -83 -19 -1215 -19 l-1180 0
-41 22 c-53 28 -107 91 -122 142 -16 52 -16 440 0 492 20 70 90 136 168 160
14 4 549 7 1190 6 1116 -2 1166 -3 1200 -21z"/>
<path d="M2750 2500 l0 -140 25 0 25 0 0 140 0 140 -25 0 -25 0 0 -140z"/>
<path d="M3479 2623 c-1 -10 -1 -40 -1 -68 1 -27 -1 -43 -5 -35 -22 54 -83 67
-122 26 -48 -51 -31 -164 27 -184 35 -12 76 3 90 31 10 21 11 21 11 -5 1 -23
6 -28 26 -28 l25 0 0 140 0 140 -25 0 c-17 0 -25 -6 -26 -17z m-27 -110 c11
-10 18 -30 18 -55 0 -32 -5 -40 -26 -50 -23 -11 -29 -10 -45 11 -25 30 -24 66
1 91 24 24 28 25 52 3z"/>
<path d="M1643 2620 c-60 -14 -93 -60 -93 -130 0 -72 37 -125 90 -131 51 -5
71 2 90 34 l20 32 0 -32 c0 -26 4 -33 20 -33 18 0 20 7 20 70 l0 69 -47 -2
c-41 -2 -48 -6 -51 -25 -3 -17 2 -22 17 -22 26 0 27 -26 2 -40 -57 -30 -101 5
-101 80 0 57 24 90 64 90 24 0 50 -19 58 -40 1 -5 13 -7 26 -3 47 12 5 74 -58
86 -14 2 -40 1 -57 -3z"/>
<path d="M2553 2619 c-88 -25 -111 -180 -36 -239 37 -29 123 -28 157 3 35 30
39 71 9 75 -13 2 -23 -1 -23 -7 0 -6 -9 -20 -20 -31 -67 -67 -149 57 -89 134
26 34 69 32 84 -2 8 -18 15 -22 35 -17 34 9 34 9 16 44 -11 21 -28 33 -54 40
-20 6 -39 11 -42 10 -3 0 -19 -5 -37 -10z"/>
<path d="M2226 2593 c9 -16 28 -45 42 -65 l25 -38 -25 -37 c-14 -21 -33 -50
-42 -65 l-18 -28 31 0 c27 0 36 7 63 51 l31 51 31 -51 c27 -45 35 -51 64 -51
37 0 38 -4 -19 78 l-38 53 46 65 45 64 -35 0 c-32 0 -38 -5 -65 -51 l-29 -51
-29 51 c-26 46 -33 51 -63 51 l-33 0 18 -27z"/>
<path d="M2093 2590 c-3 -11 -14 -20 -24 -20 -14 0 -19 -7 -19 -25 0 -14 4
-25 9 -25 4 0 11 -30 14 -66 4 -37 12 -73 18 -80 6 -8 29 -14 50 -14 35 0 39
3 39 24 0 18 -6 25 -22 28 -20 3 -23 10 -26 56 -3 50 -2 52 22 52 21 0 26 5
26 25 0 20 -5 25 -25 25 -18 0 -25 5 -25 20 0 12 -7 20 -16 20 -9 0 -18 -9
-21 -20z"/>
<path d="M1859 2541 c-24 -25 -29 -37 -29 -81 0 -41 5 -56 25 -75 38 -39 118
-37 154 2 l23 27 -22 8 c-16 6 -28 4 -40 -7 -32 -29 -90 -10 -90 29 0 3 31 6
69 6 76 0 83 6 70 55 -20 70 -106 89 -160 36z m99 -23 c24 -24 13 -38 -28 -38
-26 0 -40 5 -40 13 0 18 21 37 40 37 9 0 21 -5 28 -12z"/>
<path d="M2874 2547 c-20 -18 -28 -35 -31 -74 -5 -45 -2 -54 24 -82 25 -29 35
-33 78 -33 43 0 53 4 78 33 26 28 29 37 24 82 -6 66 -38 97 -102 97 -31 0 -52
-7 -71 -23z m100 -33 c19 -18 21 -85 4 -102 -7 -7 -21 -12 -33 -12 -32 0 -45
19 -45 65 0 61 38 86 74 49z"/>
<path d="M3090 2486 c0 -101 16 -130 71 -128 18 0 38 7 44 16 5 8 15 23 22 33
10 16 12 14 12 -14 1 -26 5 -33 21 -33 19 0 20 7 20 105 0 104 0 105 -24 105
-22 0 -24 -4 -28 -71 -6 -77 -22 -105 -56 -95 -22 7 -32 43 -32 117 0 46 -2
49 -25 49 -25 0 -25 -1 -25 -84z"/>
</g>
</svg>
